# xmcd
#
# Track frame offsets: 
#        187
#        14177
#        31697
#        46870
#        63332
#        75977
#        89272
#        102122
#        120887
#        131695
#        150687
#        167475
#        181340
#        195695
#
# Disc length: 2795 seconds
#
# Revision: 3
# Processed by: cddbd v1.4PL0 Copyright (c) Steve Scherf et al.
# Submitted via: ExactAudioCopy v0.90b4
#
DISCID=a20ae90e
DTITLE=Mark Chesnutt - Singles 1990 - 1994
DYEAR=1900
DGENRE=Country
TTITLE0=Bubba Shot The Jukebox
TTITLE1=Ol' Country
TTITLE2=I Just Wanted You To Know
TTITLE3=Too Cold At Home
TTITLE4=Your Love Is A Miracle
TTITLE5=It Sure Is Monday
TTITLE6=Blame It On Texas
TTITLE7=Almost Goodbye
TTITLE8=Old Flames Have New Names
TTITLE9=I'll Think Of Something
TTITLE10=She Dreams
TTITLE11=Brother Jukebox
TTITLE12=Woman, Sensuous Woman
TTITLE13=Broken Promise Land
EXTD=
EXTT0=
EXTT1=
EXTT2=
EXTT3=
EXTT4=
EXTT5=
EXTT6=
EXTT7=
EXTT8=
EXTT9=
EXTT10=
EXTT11=
EXTT12=
EXTT13=
PLAYORDER=
